<svg width="21" height="20" viewBox="0 0 21 20" fill="none" xmlns="http://www.w3.org/2000/svg">
<path d="M7.66665 10C7.66665 10.6443 7.14431 11.1667 6.49998 11.1667C5.85565 11.1667 5.33331 10.6443 5.33331 10C5.33331 9.35567 5.85565 8.83334 6.49998 8.83334C7.14431 8.83334 7.66665 9.35567 7.66665 10ZM11.6666 10C11.6666 10.6443 11.1443 11.1667 10.5 11.1667C9.85565 11.1667 9.33331 10.6443 9.33331 10C9.33331 9.35567 9.85565 8.83334 10.5 8.83334C11.1443 8.83334 11.6666 9.35567 11.6666 10ZM14.5 11.1667C15.1443 11.1667 15.6666 10.6443 15.6666 10C15.6666 9.35567 15.1443 8.83334 14.5 8.83334C13.8556 8.83334 13.3333 9.35567 13.3333 10C13.3333 10.6443 13.8556 11.1667 14.5 11.1667Z" fill="#AFAFAF"/>
</svg>
